STARTFONT 2.1
FONT -Fondu-Geneva-Medium-R-Normal--20-190-75-75-P-117-MacRoman-1
SIZE 19 75 75
FONTBOUNDINGBOX 23 24 -1 -4
COMMENT Created by Fondu from a mac NFNT/FONT resource
STARTPROPERTIES 17
FOUNDRY "Fondu"
FAMILY_NAME "Geneva"
WEIGHT_NAME "Medium"
SLANT "R"
SETWIDTH_NAME "Normal"
ADD_STYLE_NAME ""
PIXEL_SIZE 20
POINT_SIZE 190
RESOLUTION_X 75
RESOLUTION_Y 75
SPACING "P"
AVERAGE_WIDTH 117
CHARSET_REGISTRY "MacRoman"
CHARSET_ENCODING "1"
FONT_ASCENT 20
FONT_DESCENT 4
FACE_NAME "Geneva"
ENDPROPERTIES
CHARS 228
STARTCHAR eth
ENCODING 2
SWIDTH 500 0
DWIDTH 0 0
BBX 0 0 0 -4
BITMAP
ENDCHAR
STARTCHAR Lslash
ENCODING 3
SWIDTH 500 0
DWIDTH 0 0
BBX 0 0 0 -4
BITMAP
ENDCHAR
STARTCHAR lslash
ENCODING 4
SWIDTH 500 0
DWIDTH 0 0
BBX 0 0 0 -4
BITMAP
ENDCHAR
STARTCHAR Scaron
ENCODING 5
SWIDTH 500 0
DWIDTH 0 0
BBX 0 0 0 -4
BITMAP
ENDCHAR
STARTCHAR space
ENCODING 32
SWIDTH 333 0
DWIDTH 6 0
BBX 0 0 0 -4
BITMAP
ENDCHAR
STARTCHAR exclam
ENCODING 33
SWIDTH 303 0
DWIDTH 8 0
BBX 2 16 3 0
BITMAP
C0
C0
C0
C0
C0
C0
C0
C0
C0
C0
C0
C0
00
00
C0
C0
ENDCHAR
STARTCHAR quotedbl
ENCODING 34
SWIDTH 500 0
DWIDTH 10 0
BBX 6 4 2 12
BITMAP
CC
CC
CC
CC
ENDCHAR
STARTCHAR numbersign
ENCODING 35
SWIDTH 667 0
DWIDTH 18 0
BBX 14 12 2 3
BITMAP
0630
0630
3FFC
3FFC
0C60
0C60
18C0
18C0
FFF0
FFF0
3180
3180
ENDCHAR
STARTCHAR dollar
ENCODING 36
SWIDTH 667 0
DWIDTH 14 0
BBX 10 20 2 -2
BITMAP
0C00
0C00
3F00
7F80
CD80
CC00
EC00
7C00
3E00
0F00
0D80
0CC0
0CC0
CCC0
CCC0
ED80
7F80
1E00
0C00
0C00
ENDCHAR
STARTCHAR percent
ENCODING 37
SWIDTH 905 0
DWIDTH 18 0
BBX 15 16 1 0
BITMAP
3806
7C0C
EE18
C630
C660
EE60
7CC0
3980
0338
067C
0CEE
0CC6
18C6
30EE
607C
C038
ENDCHAR
STARTCHAR ampersand
ENCODING 38
SWIDTH 727 0
DWIDTH 16 0
BBX 14 16 1 0
BITMAP
0E00
1F00
3180
3180
3180
3300
1E00
7C00
6630
C330
C1B0
C0E0
C060
E0F0
7F98
3F0C
ENDCHAR
STARTCHAR quotesingle
ENCODING 39
SWIDTH 303 0
DWIDTH 6 0
BBX 2 4 2 12
BITMAP
C0
C0
C0
C0
ENDCHAR
STARTCHAR parenleft
ENCODING 40
SWIDTH 447 0
DWIDTH 12 0
BBX 5 20 3 -2
BITMAP
08
18
30
30
60
60
C0
C0
C0
C0
C0
C0
C0
C0
60
60
30
30
18
08
ENDCHAR
STARTCHAR parenright
ENCODING 41
SWIDTH 447 0
DWIDTH 10 0
BBX 5 20 2 -2
BITMAP
80
C0
60
60
30
30
18
18
18
18
18
18
18
18
30
30
60
60
C0
80
ENDCHAR
STARTCHAR asterisk
ENCODING 42
SWIDTH 508 0
DWIDTH 14 0
BBX 10 9 2 7
BITMAP
0C00
0C00
4C80
FFC0
7F80
1E00
3F00
7380
2100
ENDCHAR
STARTCHAR plus
ENCODING 43
SWIDTH 667 0
DWIDTH 16 0
BBX 10 10 3 2
BITMAP
0C00
0C00
0C00
0C00
FFC0
FFC0
0C00
0C00
0C00
0C00
ENDCHAR
STARTCHAR comma
ENCODING 44
SWIDTH 303 0
DWIDTH 8 0
BBX 3 5 2 -3
BITMAP
E0
E0
60
60
C0
ENDCHAR
STARTCHAR hyphen
ENCODING 45
SWIDTH 379 0
DWIDTH 14 0
BBX 10 2 2 6
BITMAP
FFC0
FFC0
ENDCHAR
STARTCHAR period
ENCODING 46
SWIDTH 303 0
DWIDTH 6 0
BBX 3 3 1 0
BITMAP
E0
E0
E0
ENDCHAR
STARTCHAR slash
ENCODING 47
SWIDTH 538 0
DWIDTH 12 0
BBX 9 16 1 0
BITMAP
0180
0180
0300
0300
0600
0600
0C00
0C00
1800
1800
3000
3000
6000
6000
C000
C000
ENDCHAR
STARTCHAR zero
ENCODING 48
SWIDTH 667 0
DWIDTH 14 0
BBX 10 15 2 0
BITMAP
1E00
3F00
6180
6180
C0C0
C0C0
C0C0
C0C0
C0C0
C0C0
C0C0
6180
6180
3F00
1E00
ENDCHAR
STARTCHAR one
ENCODING 49
SWIDTH 667 0
DWIDTH 14 0
BBX 5 15 3 0
BITMAP
38
F8
D8
18
18
18
18
18
18
18
18
18
18
18
18
ENDCHAR
STARTCHAR two
ENCODING 50
SWIDTH 667 0
DWIDTH 14 0
BBX 10 15 2 0
BITMAP
3F00
7F80
E1C0
C0C0
00C0
01C0
0780
1F00
3C00
7000
E000
C000
C000
FFC0
FFC0
ENDCHAR
STARTCHAR three
ENCODING 51
SWIDTH 667 0
DWIDTH 14 0
BBX 10 15 2 0
BITMAP
3F00
7F80
E1C0
C0C0
00C0
0180
0F00
0F80
01C0
00C0
00C0
C0C0
C1C0
7F80
3F00
ENDCHAR
STARTCHAR four
ENCODING 52
SWIDTH 667 0
DWIDTH 14 0
BBX 12 15 1 0
BITMAP
00C0
01C0
03C0
07C0
0EC0
1CC0
38C0
70C0
E0C0
FFF0
FFF0
00C0
00C0
00C0
00C0
ENDCHAR
STARTCHAR five
ENCODING 53
SWIDTH 667 0
DWIDTH 14 0
BBX 10 15 2 0
BITMAP
7FC0
7FC0
6000
6000
6000
6000
7E00
7F80
01C0
00C0
C0C0
C0C0
6180
7F80
1E00
ENDCHAR
STARTCHAR six
ENCODING 54
SWIDTH 667 0
DWIDTH 14 0
BBX 10 15 2 0
BITMAP
0E00
3F80
7180
6000
C000
DE00
FF80
E180
C0C0
C0C0
C0C0
C0C0
6180
7F80
1E00
ENDCHAR
STARTCHAR seven
ENCODING 55
SWIDTH 667 0
DWIDTH 14 0
BBX 10 15 2 0
BITMAP
FFC0
FFC0
00C0
0180
0300
0600
0C00
0C00
1800
1800
1800
3000
3000
3000
3000
ENDCHAR
STARTCHAR eight
ENCODING 56
SWIDTH 667 0
DWIDTH 14 0
BBX 10 15 2 0
BITMAP
1E00
3F00
7380
6180
6180
3300
1E00
3F00
6180
C0C0
C0C0
C0C0
6180
3F00
1E00
ENDCHAR
STARTCHAR nine
ENCODING 57
SWIDTH 667 0
DWIDTH 14 0
BBX 10 15 2 0
BITMAP
1E00
7F80
6180
C0C0
C0C0
C0C0
C0C0
61C0
7FC0
1EC0
00C0
0180
6380
7F00
1C00
ENDCHAR
STARTCHAR colon
ENCODING 58
SWIDTH 303 0
DWIDTH 6 0
BBX 3 11 1 0
BITMAP
E0
E0
E0
00
00
00
00
00
E0
E0
E0
ENDCHAR
STARTCHAR semicolon
ENCODING 59
SWIDTH 303 0
DWIDTH 8 0
BBX 3 14 2 -3
BITMAP
E0
E0
E0
00
00
00
00
00
00
E0
E0
60
60
C0
ENDCHAR
STARTCHAR less
ENCODING 60
SWIDTH 667 0
DWIDTH 10 0
BBX 7 11 1 2
BITMAP
06
0C
18
30
60
C0
60
30
18
0C
06
ENDCHAR
STARTCHAR equal
ENCODING 61
SWIDTH 667 0
DWIDTH 14 0
BBX 10 6 2 4
BITMAP
FFC0
FFC0
0000
0000
FFC0
FFC0
ENDCHAR
STARTCHAR greater
ENCODING 62
SWIDTH 667 0
DWIDTH 10 0
BBX 7 11 1 2
BITMAP
C0
60
30
18
0C
06
0C
18
30
60
C0
ENDCHAR
STARTCHAR question
ENCODING 63
SWIDTH 568 0
DWIDTH 14 0
BBX 10 16 2 0
BITMAP
1E00
7F80
6180
C0C0
C0C0
00C0
0180
0300
0600
0C00
0C00
0C00
0000
0000
0C00
0C00
ENDCHAR
STARTCHAR at
ENCODING 64
SWIDTH 871 0
DWIDTH 18 0
BBX 16 16 1 -1
BITMAP
03C0
0FF0
1C3C
300C
63C6
67F6
CE33
CC33
CC33
CE73
67DE
639C
3000
1C0C
0FFC
03F0
ENDCHAR
STARTCHAR A
ENCODING 65
SWIDTH 727 0
DWIDTH 12 0
BBX 11 16 0 0
BITMAP
0400
0400
0E00
0E00
1B00
1B00
1B00
3180
3180
3F80
7FC0
60C0
60C0
C060
C060
C060
ENDCHAR
STARTCHAR B
ENCODING 66
SWIDTH 636 0
DWIDTH 14 0
BBX 11 16 1 0
BITMAP
FF00
FF80
C1C0
C0C0
C0C0
C1C0
FF80
FF80
C0C0
C060
C060
C060
C060
C0C0
FFC0
FF00
ENDCHAR
STARTCHAR C
ENCODING 67
SWIDTH 651 0
DWIDTH 12 0
BBX 10 16 1 0
BITMAP
1E00
3F80
7180
60C0
C0C0
C000
C000
C000
C000
C000
C000
C0C0
60C0
7180
3F80
1E00
ENDCHAR
STARTCHAR D
ENCODING 68
SWIDTH 701 0
DWIDTH 14 0
BBX 11 16 1 0
BITMAP
FC00
FF00
C380
C0C0
C0C0
C060
C060
C060
C060
C060
C060
C0C0
C0C0
C380
FF00
FC00
ENDCHAR
STARTCHAR E
ENCODING 69
SWIDTH 576 0
DWIDTH 12 0
BBX 9 16 1 0
BITMAP
FF80
FF80
C000
C000
C000
C000
C000
FF00
FF00
C000
C000
C000
C000
C000
FF80
FF80
ENDCHAR
STARTCHAR F
ENCODING 70
SWIDTH 553 0
DWIDTH 12 0
BBX 9 16 1 0
BITMAP
FF80
FF80
C000
C000
C000
C000
C000
FF00
FF00
C000
C000
C000
C000
C000
C000
C000
ENDCHAR
STARTCHAR G
ENCODING 71
SWIDTH 674 0
DWIDTH 12 0
BBX 10 16 1 0
BITMAP
1E00
3F80
7180
60C0
C0C0
C000
C000
C000
C7C0
C7C0
C0C0
C0C0
60C0
70C0
3FC0
1F00
ENDCHAR
STARTCHAR H
ENCODING 72
SWIDTH 689 0
DWIDTH 14 0
BBX 11 16 1 0
BITMAP
C060
C060
C060
C060
C060
C060
C060
FFE0
FFE0
C060
C060
C060
C060
C060
C060
C060
ENDCHAR
STARTCHAR I
ENCODING 73
SWIDTH 242 0
DWIDTH 8 0
BBX 2 16 3 0
BITMAP
C0
C0
C0
C0
C0
C0
C0
C0
C0
C0
C0
C0
C0
C0
C0
C0
ENDCHAR
STARTCHAR J
ENCODING 74
SWIDTH 492 0
DWIDTH 12 0
BBX 10 16 1 0
BITMAP
00C0
00C0
00C0
00C0
00C0
00C0
00C0
00C0
00C0
00C0
00C0
00C0
C0C0
C1C0
7F80
3F00
ENDCHAR
STARTCHAR K
ENCODING 75
SWIDTH 663 0
DWIDTH 14 0
BBX 12 16 1 0
BITMAP
C0E0
C1C0
C380
C700
CE00
DC00
F800
F000
F800
DC00
CE00
C700
C380
C1C0
C0E0
C070
ENDCHAR
STARTCHAR L
ENCODING 76
SWIDTH 583 0
DWIDTH 12 0
BBX 9 16 1 0
BITMAP
C000
C000
C000
C000
C000
C000
C000
C000
C000
C000
C000
C000
C000
C000
FF80
FF80
ENDCHAR
STARTCHAR M
ENCODING 77
SWIDTH 788 0
DWIDTH 18 0
BBX 13 16 2 0
BITMAP
C018
E038
E038
F078
F078
D8D8
D8D8
CD98
CD98
CD98
C718
C718
C718
C018
C018
C018
ENDCHAR
STARTCHAR N
ENCODING 78
SWIDTH 708 0
DWIDTH 14 0
BBX 10 16 2 0
BITMAP
C0C0
C0C0
E0C0
E0C0
F0C0
F0C0
D8C0
D8C0
CCC0
C6C0
C7C0
C3C0
C3C0
C1C0
C0C0
C0C0
ENDCHAR
STARTCHAR O
ENCODING 79
SWIDTH 735 0
DWIDTH 12 0
BBX 10 16 1 0
BITMAP
1E00
3F00
6180
6180
C0C0
C0C0
C0C0
C0C0
C0C0
C0C0
C0C0
C0C0
6180
6180
3F00
1E00
ENDCHAR
STARTCHAR P
ENCODING 80
SWIDTH 583 0
DWIDTH 14 0
BBX 10 16 2 0
BITMAP
FE00
FF80
C1C0
C0C0
C0C0
C0C0
C0C0
C1C0
FF80
FE00
C000
C000
C000
C000
C000
C000
ENDCHAR
STARTCHAR Q
ENCODING 81
SWIDTH 735 0
DWIDTH 12 0
BBX 10 19 1 -3
BITMAP
1E00
3F00
6180
6180
C0C0
C0C0
C0C0
C0C0
C0C0
C0C0
C0C0
C0C0
6180
6180
3F00
1E00
0C00
0FC0
07C0
ENDCHAR
STARTCHAR R
ENCODING 82
SWIDTH 606 0
DWIDTH 14 0
BBX 11 16 1 0
BITMAP
FE00
FF80
C1C0
C0C0
C0C0
C0C0
C0C0
C1C0
FF80
FE00
C700
C300
C180
C1C0
C0E0
C060
ENDCHAR
STARTCHAR S
ENCODING 83
SWIDTH 606 0
DWIDTH 12 0
BBX 10 16 1 0
BITMAP
1F00
7F80
6180
C000
C000
6000
7800
1E00
0780
0180
00C0
00C0
C0C0
E180
7F80
1E00
ENDCHAR
STARTCHAR T
ENCODING 84
SWIDTH 640 0
DWIDTH 12 0
BBX 10 16 1 0
BITMAP
FFC0
FFC0
0C00
0C00
0C00
0C00
0C00
0C00
0C00
0C00
0C00
0C00
0C00
0C00
0C00
0C00
ENDCHAR
STARTCHAR U
ENCODING 85
SWIDTH 667 0
DWIDTH 14 0
BBX 10 16 2 0
BITMAP
C0C0
C0C0
C0C0
C0C0
C0C0
C0C0
C0C0
C0C0
C0C0
C0C0
C0C0
C0C0
C0C0
6180
7F80
1E00
ENDCHAR
STARTCHAR V
ENCODING 86
SWIDTH 727 0
DWIDTH 12 0
BBX 12 16 0 0
BITMAP
C030
C030
E070
6060
6060
70E0
30C0
30C0
30C0
1980
1980
1980
0F00
0F00
0600
0600
ENDCHAR
STARTCHAR W
ENCODING 87
SWIDTH 947 0
DWIDTH 20 0
BBX 20 16 0 0
BITMAP
C06030
C06030
C06030
60F060
60F060
60F060
3198C0
3198C0
3199C0
1B0D80
1B0D80
1B0F80
0E0700
0E0700
040200
040200
ENDCHAR
STARTCHAR X
ENCODING 88
SWIDTH 610 0
DWIDTH 12 0
BBX 12 16 0 0
BITMAP
E070
6060
30C0
30C0
1980
1980
0F00
0600
0600
0F00
1980
1980
30C0
30C0
6060
E070
ENDCHAR
STARTCHAR Y
ENCODING 89
SWIDTH 610 0
DWIDTH 12 0
BBX 10 16 1 0
BITMAP
C0C0
C0C0
6180
6180
3300
3300
1E00
1E00
0C00
0C00
0C00
0C00
0C00
0C00
0C00
0C00
ENDCHAR
STARTCHAR Z
ENCODING 90
SWIDTH 576 0
DWIDTH 10 0
BBX 10 16 0 0
BITMAP
FFC0
FFC0
0180
0100
0300
0600
0400
0C00
0C00
0800
1800
3000
2000
6000
FFC0
FFC0
ENDCHAR
STARTCHAR bracketleft
ENCODING 91
SWIDTH 447 0
DWIDTH 10 0
BBX 5 20 2 -2
BITMAP
F8
F8
C0
C0
C0
C0
C0
C0
C0
C0
C0
C0
C0
C0
C0
C0
C0
C0
F8
F8
ENDCHAR
STARTCHAR backslash
ENCODING 92
SWIDTH 538 0
DWIDTH 10 0
BBX 9 16 0 0
BITMAP
C000
C000
6000
6000
3000
3000
1800
1800
0C00
0C00
0600
0600
0300
0300
0180
0180
ENDCHAR
STARTCHAR bracketright
ENCODING 93
SWIDTH 447 0
DWIDTH 10 0
BBX 5 20 2 -2
BITMAP
F8
F8
18
18
18
18
18
18
18
18
18
18
18
18
18
18
18
18
F8
F8
ENDCHAR
STARTCHAR asciicircum
ENCODING 94
SWIDTH 667 0
DWIDTH 10 0
BBX 9 11 0 5
BITMAP
0800
0800
1C00
1C00
3600
3600
6300
6300
C180
C180
8080
ENDCHAR
STARTCHAR underscore
ENCODING 95
SWIDTH 667 0
DWIDTH 14 0
BBX 14 2 0 0
BITMAP
FFFC
FFFC
ENDCHAR
STARTCHAR grave
ENCODING 96
SWIDTH 591 0
DWIDTH 8 0
BBX 5 4 1 12
BITMAP
C0
60
30
18
ENDCHAR
STARTCHAR a
ENCODING 97
SWIDTH 553 0
DWIDTH 10 0
BBX 9 11 0 0
BITMAP
3E00
7F00
C380
0180
1F80
7F80
E180
C180
E180
7F80
3D80
ENDCHAR
STARTCHAR b
ENCODING 98
SWIDTH 610 0
DWIDTH 12 0
BBX 9 16 1 0
BITMAP
C000
C000
C000
C000
C000
DE00
FF00
E380
C180
C180
C180
C180
C180
E380
FF00
DE00
ENDCHAR
STARTCHAR c
ENCODING 99
SWIDTH 545 0
DWIDTH 10 0
BBX 8 11 1 0
BITMAP
3C
7E
E7
C3
C0
C0
C0
C3
E7
7E
3C
ENDCHAR
STARTCHAR d
ENCODING 100
SWIDTH 602 0
DWIDTH 10 0
BBX 9 16 0 0
BITMAP
0180
0180
0180
0180
0180
3D80
7F80
E380
C180
C180
C180
C180
C180
E380
7F80
3D80
ENDCHAR
STARTCHAR e
ENCODING 101
SWIDTH 576 0
DWIDTH 10 0
BBX 8 11 1 0
BITMAP
3C
7E
E7
C3
FF
FF
C0
C3
E7
7E
3C
ENDCHAR
STARTCHAR f
ENCODING 102
SWIDTH 390 0
DWIDTH 8 0
BBX 7 15 0 0
BITMAP
0E
1E
30
30
FE
FE
30
30
30
30
30
30
30
30
30
ENDCHAR
STARTCHAR g
ENCODING 103
SWIDTH 610 0
DWIDTH 10 0
BBX 9 15 0 -4
BITMAP
3D80
7F80
E380
C180
C180
C180
C180
C180
E380
7F80
3D80
0180
C300
7F00
3C00
ENDCHAR
STARTCHAR h
ENCODING 104
SWIDTH 583 0
DWIDTH 12 0
BBX 9 16 1 0
BITMAP
C000
C000
C000
C000
C000
DE00
FF00
E380
C180
C180
C180
C180
C180
C180
C180
C180
ENDCHAR
STARTCHAR i
ENCODING 105
SWIDTH 235 0
DWIDTH 8 0
BBX 2 15 3 0
BITMAP
C0
C0
00
00
C0
C0
C0
C0
C0
C0
C0
C0
C0
C0
C0
ENDCHAR
STARTCHAR j
ENCODING 106
SWIDTH 276 0
DWIDTH 8 0
BBX 5 19 0 -4
BITMAP
18
18
00
00
18
18
18
18
18
18
18
18
18
18
18
18
18
F0
E0
ENDCHAR
STARTCHAR k
ENCODING 107
SWIDTH 538 0
DWIDTH 12 0
BBX 9 16 1 0
BITMAP
C000
C000
C000
C000
C000
C300
C600
CC00
D800
F000
F000
D800
CC00
C600
C300
C180
ENDCHAR
STARTCHAR l
ENCODING 108
SWIDTH 235 0
DWIDTH 8 0
BBX 2 15 3 0
BITMAP
C0
C0
C0
C0
C0
C0
C0
C0
C0
C0
C0
C0
C0
C0
C0
ENDCHAR
STARTCHAR m
ENCODING 109
SWIDTH 894 0
DWIDTH 18 0
BBX 16 11 1 0
BITMAP
DE7C
FFFE
E3C7
C183
C183
C183
C183
C183
C183
C183
C183
ENDCHAR
STARTCHAR n
ENCODING 110
SWIDTH 583 0
DWIDTH 12 0
BBX 10 11 1 0
BITMAP
DF00
FF80
F1C0
C0C0
C0C0
C0C0
C0C0
C0C0
C0C0
C0C0
C0C0
ENDCHAR
STARTCHAR o
ENCODING 111
SWIDTH 606 0
DWIDTH 10 0
BBX 8 11 1 0
BITMAP
3C
7E
E7
C3
C3
C3
C3
C3
E7
7E
3C
ENDCHAR
STARTCHAR p
ENCODING 112
SWIDTH 602 0
DWIDTH 12 0
BBX 9 15 1 -4
BITMAP
DE00
FF00
E380
C180
C180
C180
C180
C180
E380
FF00
DE00
C000
C000
C000
C000
ENDCHAR
STARTCHAR q
ENCODING 113
SWIDTH 602 0
DWIDTH 10 0
BBX 9 15 0 -4
BITMAP
3D80
7F80
E380
C180
C180
C180
C180
C180
E380
7F80
3D80
0180
0180
0180
0180
ENDCHAR
STARTCHAR r
ENCODING 114
SWIDTH 386 0
DWIDTH 12 0
BBX 8 11 2 0
BITMAP
CF
DF
F0
E0
C0
C0
C0
C0
C0
C0
C0
ENDCHAR
STARTCHAR s
ENCODING 115
SWIDTH 509 0
DWIDTH 10 0
BBX 9 11 0 0
BITMAP
3E00
7F80
C180
C000
7C00
3F00
0380
0180
C180
7F00
3E00
ENDCHAR
STARTCHAR t
ENCODING 116
SWIDTH 443 0
DWIDTH 8 0
BBX 6 14 1 0
BITMAP
60
60
60
F8
F8
60
60
60
60
60
60
70
3C
1C
ENDCHAR
STARTCHAR u
ENCODING 117
SWIDTH 583 0
DWIDTH 12 0
BBX 9 11 1 0
BITMAP
C180
C180
C180
C180
C180
C180
C180
C180
E380
7F80
3D80
ENDCHAR
STARTCHAR v
ENCODING 118
SWIDTH 564 0
DWIDTH 12 0
BBX 12 11 0 0
BITMAP
C030
6060
6060
30C0
30C0
1980
1980
0F00
0F00
0600
0600
ENDCHAR
STARTCHAR w
ENCODING 119
SWIDTH 780 0
DWIDTH 16 0
BBX 16 11 0 0
BITMAP
C183
6186
63C6
63C6
33CC
366C
366C
1E78
1C38
0C30
0C30
ENDCHAR
STARTCHAR x
ENCODING 120
SWIDTH 530 0
DWIDTH 12 0
BBX 10 11 1 0
BITMAP
C0C0
E1C0
6180
3300
1E00
0C00
1E00
3300
6180
E1C0
C0C0
ENDCHAR
STARTCHAR y
ENCODING 121
SWIDTH 572 0
DWIDTH 12 0
BBX 11 15 0 -4
BITMAP
C060
60C0
60C0
3180
3180
1B00
1B00
0E00
0E00
0C00
0C00
1800
3800
F000
E000
ENDCHAR
STARTCHAR z
ENCODING 122
SWIDTH 553 0
DWIDTH 10 0
BBX 10 11 0 0
BITMAP
FFC0
FFC0
0180
0300
0600
0C00
1800
3000
6000
FFC0
FFC0
ENDCHAR
STARTCHAR braceleft
ENCODING 123
SWIDTH 451 0
DWIDTH 10 0
BBX 5 19 2 -1
BITMAP
18
78
60
60
60
30
30
30
20
C0
20
30
30
30
60
60
60
78
18
ENDCHAR
STARTCHAR bar
ENCODING 124
SWIDTH 246 0
DWIDTH 8 0
BBX 2 18 3 -1
BITMAP
C0
C0
C0
C0
C0
C0
C0
C0
C0
C0
C0
C0
C0
C0
C0
C0
C0
C0
ENDCHAR
STARTCHAR braceright
ENCODING 125
SWIDTH 451 0
DWIDTH 10 0
BBX 5 19 2 -1
BITMAP
C0
F0
30
30
30
60
60
60
20
18
20
60
60
60
30
30
30
F0
C0
ENDCHAR
STARTCHAR asciitilde
ENCODING 126
SWIDTH 667 0
DWIDTH 14 0
BBX 11 4 1 13
BITMAP
3820
7C60
C7C0
8380
ENDCHAR
STARTCHAR char007f
ENCODING 127
SWIDTH 500 0
DWIDTH 0 0
BBX 0 0 0 -4
BITMAP
ENDCHAR
STARTCHAR Adieresis
ENCODING 128
SWIDTH 727 0
DWIDTH 12 0
BBX 11 19 0 0
BITMAP
1980
1980
0000
0400
0400
0E00
0E00
1B00
1B00
1B00
3180
3180
3F80
7FC0
60C0
60C0
C060
C060
C060
ENDCHAR
STARTCHAR Aring
ENCODING 129
SWIDTH 727 0
DWIDTH 12 0
BBX 11 20 0 0
BITMAP
1E00
3F00
3300
3300
3F00
1E00
0E00
0E00
1B00
1B00
1B00
3180
3180
3F80
7FC0
60C0
60C0
C060
C060
C060
ENDCHAR
STARTCHAR Ccedilla
ENCODING 130
SWIDTH 651 0
DWIDTH 12 0
BBX 10 20 1 -4
BITMAP
1E00
3F80
7180
60C0
C0C0
C000
C000
C000
C000
C000
C000
C0C0
60C0
7180
3F80
1E00
0C00
0600
0E00
1C00
ENDCHAR
STARTCHAR Eacute
ENCODING 131
SWIDTH 576 0
DWIDTH 12 0
BBX 9 20 1 0
BITMAP
0600
0C00
1800
0000
FF80
FF80
C000
C000
C000
C000
C000
FF00
FF00
C000
C000
C000
C000
C000
FF80
FF80
ENDCHAR
STARTCHAR Ntilde
ENCODING 132
SWIDTH 708 0
DWIDTH 14 0
BBX 10 20 2 0
BITMAP
3880
7F80
4700
0000
C0C0
C0C0
E0C0
E0C0
F0C0
F0C0
D8C0
D8C0
CCC0
C6C0
C7C0
C3C0
C3C0
C1C0
C0C0
C0C0
ENDCHAR
STARTCHAR Odieresis
ENCODING 133
SWIDTH 735 0
DWIDTH 12 0
BBX 10 19 1 0
BITMAP
3300
3300
0000
1E00
3F00
6180
6180
C0C0
C0C0
C0C0
C0C0
C0C0
C0C0
C0C0
C0C0
6180
6180
3F00
1E00
ENDCHAR
STARTCHAR Udieresis
ENCODING 134
SWIDTH 667 0
DWIDTH 14 0
BBX 10 19 2 0
BITMAP
3300
3300
0000
C0C0
C0C0
C0C0
C0C0
C0C0
C0C0
C0C0
C0C0
C0C0
C0C0
C0C0
C0C0
C0C0
6180
7F80
1E00
ENDCHAR
STARTCHAR aacute
ENCODING 135
SWIDTH 553 0
DWIDTH 10 0
BBX 9 18 0 0
BITMAP
0200
0600
0C00
1800
1000
0000
0000
3E00
7F00
C380
0180
1F80
7F80
E180
C180
E180
7F80
3D80
ENDCHAR
STARTCHAR agrave
ENCODING 136
SWIDTH 553 0
DWIDTH 10 0
BBX 9 18 0 0
BITMAP
2000
3000
1800
0C00
0400
0000
0000
3E00
7F00
C380
0180
1F80
7F80
E180
C180
E180
7F80
3D80
ENDCHAR
STARTCHAR acircumflex
ENCODING 137
SWIDTH 553 0
DWIDTH 10 0
BBX 9 17 0 0
BITMAP
1800
3C00
6600
4200
0000
0000
3E00
7F00
C380
0180
1F80
7F80
E180
C180
E180
7F80
3D80
ENDCHAR
STARTCHAR adieresis
ENCODING 138
SWIDTH 553 0
DWIDTH 10 0
BBX 9 15 0 0
BITMAP
6600
6600
0000
0000
3E00
7F00
C380
0180
1F80
7F80
E180
C180
E180
7F80
3D80
ENDCHAR
STARTCHAR atilde
ENCODING 139
SWIDTH 553 0
DWIDTH 10 0
BBX 9 16 0 0
BITMAP
7100
FF00
8E00
0000
0000
3E00
7F00
C380
0180
1F80
7F80
E180
C180
E180
7F80
3D80
ENDCHAR
STARTCHAR aring
ENCODING 140
SWIDTH 553 0
DWIDTH 10 0
BBX 9 19 0 0
BITMAP
3C00
7E00
6600
6600
7E00
3C00
0000
0000
3E00
7F00
C380
0180
1F80
7F80
E180
C180
E180
7F80
3D80
ENDCHAR
STARTCHAR ccedilla
ENCODING 141
SWIDTH 545 0
DWIDTH 10 0
BBX 8 15 1 -4
BITMAP
3C
7E
E7
C3
C0
C0
C0
C3
E7
7E
3C
18
0C
1C
38
ENDCHAR
STARTCHAR eacute
ENCODING 142
SWIDTH 576 0
DWIDTH 10 0
BBX 8 18 1 0
BITMAP
02
06
0C
18
10
00
00
3C
7E
E7
C3
FF
FF
C0
C3
E7
7E
3C
ENDCHAR
STARTCHAR egrave
ENCODING 143
SWIDTH 576 0
DWIDTH 10 0
BBX 8 18 1 0
BITMAP
20
30
18
0C
04
00
00
3C
7E
E7
C3
FF
FF
C0
C3
E7
7E
3C
ENDCHAR
STARTCHAR ecircumflex
ENCODING 144
SWIDTH 576 0
DWIDTH 10 0
BBX 8 17 1 0
BITMAP
18
3C
66
42
00
00
3C
7E
E7
C3
FF
FF
C0
C3
E7
7E
3C
ENDCHAR
STARTCHAR edieresis
ENCODING 145
SWIDTH 576 0
DWIDTH 10 0
BBX 8 15 1 0
BITMAP
66
66
00
00
3C
7E
E7
C3
FF
FF
C0
C3
E7
7E
3C
ENDCHAR
STARTCHAR iacute
ENCODING 146
SWIDTH 235 0
DWIDTH 8 0
BBX 4 18 3 0
BITMAP
10
30
60
C0
80
00
00
C0
C0
C0
C0
C0
C0
C0
C0
C0
C0
C0
ENDCHAR
STARTCHAR igrave
ENCODING 147
SWIDTH 235 0
DWIDTH 8 0
BBX 4 17 1 0
BITMAP
80
C0
60
30
10
00
30
30
30
30
30
30
30
30
30
30
30
ENDCHAR
STARTCHAR icircumflex
ENCODING 148
SWIDTH 235 0
DWIDTH 10 0
BBX 6 17 2 0
BITMAP
30
78
CC
84
00
00
30
30
30
30
30
30
30
30
30
30
30
ENDCHAR
STARTCHAR idieresis
ENCODING 149
SWIDTH 235 0
DWIDTH 8 0
BBX 6 16 1 0
BITMAP
CC
CC
00
00
30
30
30
30
30
30
30
30
30
30
30
30
ENDCHAR
STARTCHAR ntilde
ENCODING 150
SWIDTH 583 0
DWIDTH 12 0
BBX 10 16 1 0
BITMAP
3880
7F80
4700
0000
0000
DF00
FF80
F1C0
C0C0
C0C0
C0C0
C0C0
C0C0
C0C0
C0C0
C0C0
ENDCHAR
STARTCHAR oacute
ENCODING 151
SWIDTH 606 0
DWIDTH 10 0
BBX 8 18 1 0
BITMAP
02
06
0C
18
10
00
00
3C
7E
E7
C3
C3
C3
C3
C3
E7
7E
3C
ENDCHAR
STARTCHAR ograve
ENCODING 152
SWIDTH 606 0
DWIDTH 10 0
BBX 8 18 1 0
BITMAP
20
30
18
0C
04
00
00
3C
7E
E7
C3
C3
C3
C3
C3
E7
7E
3C
ENDCHAR
STARTCHAR ocircumflex
ENCODING 153
SWIDTH 606 0
DWIDTH 10 0
BBX 8 17 1 0
BITMAP
18
3C
66
42
00
00
3C
7E
E7
C3
C3
C3
C3
C3
E7
7E
3C
ENDCHAR
STARTCHAR odieresis
ENCODING 154
SWIDTH 606 0
DWIDTH 10 0
BBX 8 15 1 0
BITMAP
66
66
00
00
3C
7E
E7
C3
C3
C3
C3
C3
E7
7E
3C
ENDCHAR
STARTCHAR otilde
ENCODING 155
SWIDTH 606 0
DWIDTH 12 0
BBX 8 16 2 0
BITMAP
71
FF
8E
00
00
3C
7E
E7
C3
C3
C3
C3
C3
E7
7E
3C
ENDCHAR
STARTCHAR uacute
ENCODING 156
SWIDTH 583 0
DWIDTH 12 0
BBX 9 18 1 0
BITMAP
0200
0600
0C00
1800
1000
0000
0000
C180
C180
C180
C180
C180
C180
C180
C180
E380
7F80
3D80
ENDCHAR
STARTCHAR ugrave
ENCODING 157
SWIDTH 583 0
DWIDTH 12 0
BBX 9 18 1 0
BITMAP
2000
3000
1800
0C00
0400
0000
0000
C180
C180
C180
C180
C180
C180
C180
C180
E380
7F80
3D80
ENDCHAR
STARTCHAR ucircumflex
ENCODING 158
SWIDTH 583 0
DWIDTH 12 0
BBX 9 17 1 0
BITMAP
1800
3C00
6600
4200
0000
0000
C180
C180
C180
C180
C180
C180
C180
C180
E380
7F80
3D80
ENDCHAR
STARTCHAR udieresis
ENCODING 159
SWIDTH 583 0
DWIDTH 12 0
BBX 9 15 1 0
BITMAP
6600
6600
0000
0000
C180
C180
C180
C180
C180
C180
C180
C180
E380
7F80
3D80
ENDCHAR
STARTCHAR dagger
ENCODING 160
SWIDTH 667 0
DWIDTH 10 0
BBX 10 18 0 -2
BITMAP
0C00
0C00
0C00
FFC0
FFC0
0C00
0C00
0C00
0C00
0C00
0C00
0C00
0C00
0C00
0C00
0C00
0C00
0C00
ENDCHAR
STARTCHAR degree
ENCODING 161
SWIDTH 341 0
DWIDTH 10 0
BBX 7 7 1 9
BITMAP
38
7C
C6
C6
C6
7C
38
ENDCHAR
STARTCHAR cent
ENCODING 162
SWIDTH 667 0
DWIDTH 12 0
BBX 10 16 1 -2
BITMAP
0C00
0C00
3F00
7F80
EDC0
CCC0
CC00
CC00
CC00
CC00
CCC0
EDC0
7F80
3F00
0C00
0C00
ENDCHAR
STARTCHAR sterling
ENCODING 163
SWIDTH 667 0
DWIDTH 14 0
BBX 13 16 0 0
BITMAP
00F8
03F8
0300
0600
0600
0E00
0C00
7FC0
7FC0
1C00
1800
3800
3000
6000
FFF8
FFF8
ENDCHAR
STARTCHAR section
ENCODING 164
SWIDTH 667 0
DWIDTH 12 0
BBX 11 20 0 -4
BITMAP
1F00
7FC0
E0E0
C060
E000
7000
3C00
6F00
C780
E1C0
70E0
3C60
1EC0
0780
01C0
00E0
C060
E0E0
7FC0
1F00
ENDCHAR
STARTCHAR bullet
ENCODING 165
SWIDTH 667 0
DWIDTH 12 0
BBX 8 8 2 2
BITMAP
3C
7E
FF
FF
FF
FF
7E
3C
ENDCHAR
STARTCHAR paragraph
ENCODING 166
SWIDTH 667 0
DWIDTH 12 0
BBX 12 20 0 -4
BITMAP
1FF0
7FF0
FE60
FE60
FE60
FE60
FE60
7E60
3E60
0660
0660
0660
0660
0660
0660
0660
0660
0660
0660
0660
ENDCHAR
STARTCHAR germandbls
ENCODING 167
SWIDTH 591 0
DWIDTH 14 0
BBX 11 16 1 0
BITMAP
3F00
7F80
E1C0
C0C0
C1C0
C380
C700
C600
C700
C3C0
C0E0
C060
C060
C060
CFE0
CFC0
ENDCHAR
STARTCHAR registered
ENCODING 168
SWIDTH 879 0
DWIDTH 20 0
BBX 18 17 1 -1
BITMAP
03F000
0FFC00
1C0E00
300300
67E180
67F180
C618C0
C638C0
C7F0C0
C7E0C0
C670C0
663980
661980
300300
1C0E00
0FFC00
03F000
ENDCHAR
STARTCHAR copyright
ENCODING 169
SWIDTH 879 0
DWIDTH 20 0
BBX 18 17 1 -1
BITMAP
03F000
0FFC00
1C0E00
300300
61E180
63F180
C618C0
C600C0
C600C0
C600C0
C618C0
63F180
61E180
300300
1C0E00
0FFC00
03F000
ENDCHAR
STARTCHAR trademark
ENCODING 170
SWIDTH 758 0
DWIDTH 18 0
BBX 16 8 1 8
BITMAP
FD83
FDC7
31EF
31BB
3193
3183
3183
3183
ENDCHAR
STARTCHAR acute
ENCODING 171
SWIDTH 591 0
DWIDTH 6 0
BBX 4 5 1 12
BITMAP
10
30
60
C0
80
ENDCHAR
STARTCHAR dieresis
ENCODING 172
SWIDTH 591 0
DWIDTH 8 0
BBX 6 2 1 14
BITMAP
CC
CC
ENDCHAR
STARTCHAR notequal
ENCODING 173
SWIDTH 667 0
DWIDTH 14 0
BBX 10 10 2 2
BITMAP
0180
0300
FFC0
FFC0
0E00
1C00
FFC0
FFC0
3000
6000
ENDCHAR
STARTCHAR AE
ENCODING 174
SWIDTH 992 0
DWIDTH 18 0
BBX 18 16 0 0
BITMAP
01FFC0
01FFC0
036000
036000
066000
066000
0C6000
0FFF80
1FFF80
186000
306000
306000
606000
606000
C07FC0
C07FC0
ENDCHAR
STARTCHAR Oslash
ENCODING 175
SWIDTH 735 0
DWIDTH 16 0
BBX 12 16 2 0
BITMAP
0F30
1FF0
30E0
30E0
61E0
6160
6360
6660
6660
6C60
6860
7860
70C0
70C0
FF80
CF00
ENDCHAR
STARTCHAR infinity
ENCODING 176
SWIDTH 667 0
DWIDTH 22 0
BBX 19 9 1 3
BITMAP
1C0700
7E0FC0
67BCC0
C1B060
C0E060
C1B060
67BCC0
7E0FC0
1C0700
ENDCHAR
STARTCHAR plusminus
ENCODING 177
SWIDTH 667 0
DWIDTH 14 0
BBX 10 13 2 0
BITMAP
0C00
0C00
0C00
0C00
FFC0
FFC0
0C00
0C00
0C00
0C00
0000
FFC0
FFC0
ENDCHAR
STARTCHAR lessequal
ENCODING 178
SWIDTH 667 0
DWIDTH 10 0
BBX 8 14 1 0
BITMAP
06
0C
18
30
60
C0
60
30
18
0C
06
00
FF
FF
ENDCHAR
STARTCHAR greaterequal
ENCODING 179
SWIDTH 667 0
DWIDTH 14 0
BBX 8 14 3 0
BITMAP
60
30
18
0C
06
03
06
0C
18
30
60
00
FF
FF
ENDCHAR
STARTCHAR yen
ENCODING 180
SWIDTH 667 0
DWIDTH 14 0
BBX 10 16 2 0
BITMAP
C0C0
C0C0
6180
6180
3300
3300
1E00
1E00
FFC0
FFC0
0C00
FFC0
FFC0
0C00
0C00
0C00
ENDCHAR
STARTCHAR mu
ENCODING 181
SWIDTH 591 0
DWIDTH 14 0
BBX 14 14 0 -2
BITMAP
0C0C
1818
1818
1818
3838
3030
3030
3030
6060
70E0
7FE0
DF60
C000
C000
ENDCHAR
STARTCHAR partialdiff
ENCODING 182
SWIDTH 651 0
DWIDTH 10 0
BBX 9 14 0 0
BITMAP
7000
3C00
0E00
0700
0300
0F80
3D80
7180
E180
C180
C380
C700
7E00
3C00
ENDCHAR
STARTCHAR summation
ENCODING 183
SWIDTH 606 0
DWIDTH 14 0
BBX 11 20 1 -4
BITMAP
FFE0
FFE0
C000
6000
3000
1800
0C00
0600
0300
0300
0600
0C00
0C00
1800
3000
3000
6000
C000
FFE0
FFE0
ENDCHAR
STARTCHAR product
ENCODING 184
SWIDTH 803 0
DWIDTH 14 0
BBX 13 20 0 -4
BITMAP
FFF8
FFF8
3060
3060
3060
3060
3060
3060
3060
3060
3060
3060
3060
3060
3060
3060
3060
3060
3060
3060
ENDCHAR
STARTCHAR pi
ENCODING 185
SWIDTH 689 0
DWIDTH 16 0
BBX 14 12 1 0
BITMAP
FFFC
FFFC
3030
3030
3030
3030
3030
3030
3030
3030
3030
3018
ENDCHAR
STARTCHAR integral
ENCODING 186
SWIDTH 523 0
DWIDTH 10 0
BBX 8 24 1 -4
BITMAP
07
0B
08
18
18
18
18
18
18
18
18
18
18
18
18
18
18
18
18
18
18
10
D0
E0
ENDCHAR
STARTCHAR ordfeminine
ENCODING 187
SWIDTH 333 0
DWIDTH 10 0
BBX 7 9 1 8
BITMAP
78
FC
CE
06
7E
FE
C6
FE
7E
ENDCHAR
STARTCHAR ordmasculine
ENCODING 188
SWIDTH 371 0
DWIDTH 10 0
BBX 8 9 1 8
BITMAP
3C
7E
66
C3
C3
C3
66
7E
3C
ENDCHAR
STARTCHAR Omega
ENCODING 189
SWIDTH 803 0
DWIDTH 16 0
BBX 14 16 1 0
BITMAP
0FC0
3FF0
7038
6018
C00C
C00C
C00C
C00C
C00C
C00C
C00C
6018
3030
1860
F87C
F87C
ENDCHAR
STARTCHAR ae
ENCODING 190
SWIDTH 928 0
DWIDTH 16 0
BBX 14 11 1 0
BITMAP
3CF0
7FF8
C79C
030C
3FFC
7FFC
E300
C30C
E39C
7FF8
3CF0
ENDCHAR
STARTCHAR oslash
ENCODING 191
SWIDTH 606 0
DWIDTH 14 0
BBX 12 11 1 0
BITMAP
0F30
1FE0
39C0
31C0
33C0
36C0
3CC0
38C0
39C0
7F80
CF00
ENDCHAR
STARTCHAR questiondown
ENCODING 192
SWIDTH 568 0
DWIDTH 14 0
BBX 10 16 2 0
BITMAP
0C00
0C00
0000
0000
0C00
0C00
0C00
1800
3000
6000
C000
C0C0
C0C0
6180
7F80
1E00
ENDCHAR
STARTCHAR exclamdown
ENCODING 193
SWIDTH 303 0
DWIDTH 8 0
BBX 2 16 3 0
BITMAP
C0
C0
00
00
C0
C0
C0
C0
C0
C0
C0
C0
C0
C0
C0
C0
ENDCHAR
STARTCHAR logicalnot
ENCODING 194
SWIDTH 667 0
DWIDTH 14 0
BBX 10 6 2 2
BITMAP
FFC0
FFC0
00C0
00C0
00C0
00C0
ENDCHAR
STARTCHAR radical
ENCODING 195
SWIDTH 898 0
DWIDTH 18 0
BBX 17 17 0 -1
BITMAP
000780
000F80
000C00
001800
001800
003000
003000
006000
306000
78C000
D8C000
8D8000
0D8000
070000
070000
020000
020000
ENDCHAR
STARTCHAR florin
ENCODING 196
SWIDTH 667 0
DWIDTH 10 0
BBX 9 19 0 -2
BITMAP
0380
0780
0600
0E00
0C00
3F00
3F00
1800
1800
1800
3000
3000
3000
3000
6000
6000
6000
C000
C000
ENDCHAR
STARTCHAR approxequal
ENCODING 197
SWIDTH 667 0
DWIDTH 14 0
BBX 12 8 1 4
BITMAP
3810
7E30
C7E0
81C0
3810
7E30
C7E0
81C0
ENDCHAR
STARTCHAR Delta
ENCODING 198
SWIDTH 758 0
DWIDTH 14 0
BBX 12 16 1 0
BITMAP
0600
0600
0F00
0F00
1980
1980
1980
30C0
30C0
30C0
6060
6060
6060
C030
FFF0
FFF0
ENDCHAR
STARTCHAR guillemotleft
ENCODING 199
SWIDTH 534 0
DWIDTH 16 0
BBX 11 9 2 1
BITMAP
0C60
18C0
3180
6300
C600
6300
3180
18C0
0C60
ENDCHAR
STARTCHAR guillemotright
ENCODING 200
SWIDTH 534 0
DWIDTH 14 0
BBX 11 9 2 1
BITMAP
C600
6300
3180
18C0
0C60
18C0
3180
6300
C600
ENDCHAR
STARTCHAR ellipsis
ENCODING 201
SWIDTH 1030 0
DWIDTH 18 0
BBX 12 2 3 0
BITMAP
C630
C630
ENDCHAR
STARTCHAR nbspace
ENCODING 202
SWIDTH 667 0
DWIDTH 14 0
BBX 0 0 0 -4
BITMAP
ENDCHAR
STARTCHAR Agrave
ENCODING 203
SWIDTH 727 0
DWIDTH 12 0
BBX 11 20 0 0
BITMAP
3000
1800
0C00
0000
0400
0400
0E00
0E00
1B00
1B00
1B00
3180
3180
3F80
7FC0
60C0
60C0
C060
C060
C060
ENDCHAR
STARTCHAR Atilde
ENCODING 204
SWIDTH 727 0
DWIDTH 14 0
BBX 11 20 1 0
BITMAP
3880
7F80
4700
0000
0400
0400
0E00
0E00
1B00
1B00
1B00
3180
3180
3F80
7FC0
60C0
60C0
C060
C060
C060
ENDCHAR
STARTCHAR Otilde
ENCODING 205
SWIDTH 735 0
DWIDTH 14 0
BBX 10 20 2 0
BITMAP
3880
7F80
4700
0000
1E00
3F00
6180
6180
C0C0
C0C0
C0C0
C0C0
C0C0
C0C0
C0C0
C0C0
6180
6180
3F00
1E00
ENDCHAR
STARTCHAR OE
ENCODING 206
SWIDTH 1091 0
DWIDTH 18 0
BBX 17 16 0 0
BITMAP
1EFF80
3FFF80
61C000
61C000
C0C000
C0C000
C0C000
C0FF00
C0FF00
C0C000
C0C000
C0C000
61C000
61C000
3FFF80
1EFF80
ENDCHAR
STARTCHAR oe
ENCODING 207
SWIDTH 996 0
DWIDTH 16 0
BBX 14 11 1 0
BITMAP
3CF0
7FF8
E79C
C30C
C3FC
C3FC
C300
C30C
E79C
7FF8
3CF0
ENDCHAR
STARTCHAR endash
ENCODING 208
SWIDTH 515 0
DWIDTH 11 0
BBX 9 2 1 6
BITMAP
FF80
FF80
ENDCHAR
STARTCHAR emdash
ENCODING 209
SWIDTH 1030 0
DWIDTH 18 0
BBX 16 2 1 6
BITMAP
FFFF
FFFF
ENDCHAR
STARTCHAR quotedblleft
ENCODING 210
SWIDTH 492 0
DWIDTH 14 0
BBX 8 5 3 11
BITMAP
63
C6
C6
E7
E7
ENDCHAR
STARTCHAR quotedblright
ENCODING 211
SWIDTH 492 0
DWIDTH 14 0
BBX 8 5 3 11
BITMAP
E7
E7
63
63
C6
ENDCHAR
STARTCHAR quoteleft
ENCODING 212
SWIDTH 303 0
DWIDTH 8 0
BBX 3 5 2 11
BITMAP
60
C0
C0
E0
E0
ENDCHAR
STARTCHAR quoteright
ENCODING 213
SWIDTH 303 0
DWIDTH 8 0
BBX 3 5 2 11
BITMAP
E0
E0
60
60
C0
ENDCHAR
STARTCHAR divide
ENCODING 214
SWIDTH 667 0
DWIDTH 16 0
BBX 10 10 3 2
BITMAP
0C00
0C00
0000
0000
FFC0
FFC0
0000
0000
0C00
0C00
ENDCHAR
STARTCHAR lozenge
ENCODING 215
SWIDTH 667 0
DWIDTH 18 0
BBX 13 16 2 -2
BITMAP
0200
0700
0D80
18C0
18C0
3060
6030
C018
C018
6030
3060
18C0
18C0
0D80
0700
0200
ENDCHAR
STARTCHAR ydieresis
ENCODING 216
SWIDTH 572 0
DWIDTH 12 0
BBX 11 19 0 -4
BITMAP
3300
3300
0000
0000
C060
60C0
60C0
3180
3180
1B00
1B00
0E00
0E00
0C00
0C00
1800
3800
F000
E000
ENDCHAR
STARTCHAR Ydieresis
ENCODING 217
SWIDTH 610 0
DWIDTH 12 0
BBX 10 18 1 0
BITMAP
6180
6180
0000
C0C0
C0C0
6180
6180
3300
3300
1E00
1E00
0C00
0C00
0C00
0C00
0C00
0C00
0C00
ENDCHAR
STARTCHAR fraction
ENCODING 218
SWIDTH 102 0
DWIDTH 7 0
BBX 9 16 -1 -1
BITMAP
0180
0180
0300
0300
0600
0600
0C00
0C00
1800
1800
3000
3000
6000
6000
C000
C000
ENDCHAR
STARTCHAR currency
ENCODING 219
SWIDTH 744 0
DWIDTH 15 0
BBX 13 13 1 0
BITMAP
03E0
0C10
1008
1000
2000
FFF0
2000
FFE0
2000
1000
1008
0C10
03E0
ENDCHAR
STARTCHAR guilsinglleft
ENCODING 220
SWIDTH 322 0
DWIDTH 8 0
BBX 6 9 1 1
BITMAP
0C
18
30
60
C0
60
30
18
0C
ENDCHAR
STARTCHAR guilsinglright
ENCODING 221
SWIDTH 322 0
DWIDTH 8 0
BBX 6 9 1 1
BITMAP
C0
60
30
18
0C
18
30
60
C0
ENDCHAR
STARTCHAR fi
ENCODING 222
SWIDTH 599 0
DWIDTH 12 0
BBX 10 15 0 0
BITMAP
0C00
1C00
3000
3000
FFC0
FFC0
30C0
30C0
30C0
30C0
30C0
30C0
30C0
30C0
30C0
ENDCHAR
STARTCHAR fl
ENCODING 223
SWIDTH 599 0
DWIDTH 12 0
BBX 10 15 0 0
BITMAP
0FC0
1FC0
30C0
30C0
FCC0
FCC0
30C0
30C0
30C0
30C0
30C0
30C0
30C0
30C0
30C0
ENDCHAR
STARTCHAR daggerdbl
ENCODING 224
SWIDTH 667 0
DWIDTH 10 0
BBX 8 18 1 -3
BITMAP
18
18
18
FF
FF
18
18
18
18
18
18
18
18
FF
FF
18
18
18
ENDCHAR
STARTCHAR periodcentered
ENCODING 225
SWIDTH 667 0
DWIDTH 9 0
BBX 3 3 3 5
BITMAP
E0
E0
E0
ENDCHAR
STARTCHAR quotesinglbase
ENCODING 226
SWIDTH 303 0
DWIDTH 8 0
BBX 3 5 2 -3
BITMAP
E0
E0
60
60
C0
ENDCHAR
STARTCHAR quotedblbase
ENCODING 227
SWIDTH 492 0
DWIDTH 14 0
BBX 8 5 3 -3
BITMAP
E7
E7
63
63
C6
ENDCHAR
STARTCHAR perthousand
ENCODING 228
SWIDTH 1311 0
DWIDTH 25 0
BBX 23 15 1 0
BITMAP
381800
7C1800
EE3000
C66000
C66000
EEC000
7D8000
39B838
037C7C
06EEEE
06C6C6
0CC6C6
18EEEE
187C7C
303838
ENDCHAR
STARTCHAR Acircumflex
ENCODING 229
SWIDTH 727 0
DWIDTH 12 0
BBX 11 19 0 0
BITMAP
0400
0E00
1B00
0000
0400
0400
0E00
0E00
1B00
1B00
1B00
3180
3180
3F80
7FC0
60C0
60C0
C060
C060
ENDCHAR
STARTCHAR Ecircumflex
ENCODING 230
SWIDTH 576 0
DWIDTH 12 0
BBX 9 19 1 0
BITMAP
0800
1C00
3600
0000
FF80
FF80
C000
C000
C000
C000
FF00
FF00
C000
C000
C000
C000
C000
FF80
FF80
ENDCHAR
STARTCHAR Aacute
ENCODING 231
SWIDTH 727 0
DWIDTH 12 0
BBX 11 19 0 0
BITMAP
0300
0600
0C00
0000
0400
0400
0E00
0E00
1B00
1B00
1B00
3180
3180
3F80
7FC0
60C0
60C0
C060
C060
ENDCHAR
STARTCHAR Edieresis
ENCODING 232
SWIDTH 576 0
DWIDTH 12 0
BBX 9 18 1 0
BITMAP
6300
6300
0000
FF80
FF80
C000
C000
C000
C000
FF00
FF00
C000
C000
C000
C000
C000
FF80
FF80
ENDCHAR
STARTCHAR Egrave
ENCODING 233
SWIDTH 576 0
DWIDTH 12 0
BBX 9 19 1 0
BITMAP
3000
1800
0C00
0000
FF80
FF80
C000
C000
C000
C000
FF00
FF00
C000
C000
C000
C000
C000
FF80
FF80
ENDCHAR
STARTCHAR Iacute
ENCODING 234
SWIDTH 242 0
DWIDTH 8 0
BBX 4 19 2 0
BITMAP
30
60
C0
00
60
60
60
60
60
60
60
60
60
60
60
60
60
60
60
ENDCHAR
STARTCHAR Icircumflex
ENCODING 235
SWIDTH 242 0
DWIDTH 8 0
BBX 6 19 1 0
BITMAP
30
78
CC
00
30
30
30
30
30
30
30
30
30
30
30
30
30
30
30
ENDCHAR
STARTCHAR Idieresis
ENCODING 236
SWIDTH 242 0
DWIDTH 8 0
BBX 6 18 1 0
BITMAP
CC
CC
00
30
30
30
30
30
30
30
30
30
30
30
30
30
30
30
ENDCHAR
STARTCHAR Igrave
ENCODING 237
SWIDTH 242 0
DWIDTH 8 0
BBX 4 19 2 0
BITMAP
C0
60
30
00
60
60
60
60
60
60
60
60
60
60
60
60
60
60
60
ENDCHAR
STARTCHAR Oacute
ENCODING 238
SWIDTH 735 0
DWIDTH 12 0
BBX 11 19 0 0
BITMAP
0300
0600
0C00
0000
1F00
3F80
60C0
60C0
C060
C060
C060
C060
C060
C060
C060
60C0
60C0
3F80
1F00
ENDCHAR
STARTCHAR Ocircumflex
ENCODING 239
SWIDTH 735 0
DWIDTH 12 0
BBX 11 19 0 0
BITMAP
0400
0E00
1B00
0000
1F00
3F80
60C0
60C0
C060
C060
C060
C060
C060
C060
C060
60C0
60C0
3F80
1F00
ENDCHAR
STARTCHAR apple
ENCODING 240
SWIDTH 790 0
DWIDTH 15 0
BBX 13 15 1 0
BITMAP
0180
0380
0300
3A70
7FF8
FFF8
FFE0
FFC0
FFC0
FFC0
FFE0
7FF8
7FF8
3FF0
1CE0
ENDCHAR
STARTCHAR Ograve
ENCODING 241
SWIDTH 735 0
DWIDTH 12 0
BBX 11 19 0 0
BITMAP
1800
0C00
0600
0000
1F00
3F80
60C0
60C0
C060
C060
C060
C060
C060
C060
C060
60C0
60C0
3F80
1F00
ENDCHAR
STARTCHAR Uacute
ENCODING 242
SWIDTH 667 0
DWIDTH 14 0
BBX 10 19 2 0
BITMAP
0600
0C00
1800
0000
C0C0
C0C0
C0C0
C0C0
C0C0
C0C0
C0C0
C0C0
C0C0
C0C0
C0C0
C0C0
6180
7F80
1E00
ENDCHAR
STARTCHAR Ucircumflex
ENCODING 243
SWIDTH 667 0
DWIDTH 14 0
BBX 10 19 2 0
BITMAP
0C00
1E00
3300
0000
C0C0
C0C0
C0C0
C0C0
C0C0
C0C0
C0C0
C0C0
C0C0
C0C0
C0C0
C0C0
6180
7F80
1E00
ENDCHAR
STARTCHAR Ugrave
ENCODING 244
SWIDTH 667 0
DWIDTH 14 0
BBX 10 19 2 0
BITMAP
1800
0C00
0600
0000
C0C0
C0C0
C0C0
C0C0
C0C0
C0C0
C0C0
C0C0
C0C0
C0C0
C0C0
C0C0
6180
7F80
1E00
ENDCHAR
STARTCHAR dotlessi
ENCODING 245
SWIDTH 235 0
DWIDTH 8 0
BBX 2 11 3 0
BITMAP
C0
C0
C0
C0
C0
C0
C0
C0
C0
C0
C0
ENDCHAR
STARTCHAR circumflex
ENCODING 246
SWIDTH 591 0
DWIDTH 10 0
BBX 6 3 2 12
BITMAP
30
78
CC
ENDCHAR
STARTCHAR tilde
ENCODING 247
SWIDTH 591 0
DWIDTH 10 0
BBX 7 3 1 12
BITMAP
72
FE
9C
ENDCHAR
STARTCHAR macron
ENCODING 248
SWIDTH 591 0
DWIDTH 10 0
BBX 6 2 2 12
BITMAP
FC
FC
ENDCHAR
STARTCHAR breve
ENCODING 249
SWIDTH 591 0
DWIDTH 10 0
BBX 8 3 1 12
BITMAP
81
7E
3C
ENDCHAR
STARTCHAR dotaccent
ENCODING 250
SWIDTH 591 0
DWIDTH 10 0
BBX 2 2 4 12
BITMAP
C0
C0
ENDCHAR
STARTCHAR ring
ENCODING 251
SWIDTH 591 0
DWIDTH 10 0
BBX 4 4 3 12
BITMAP
60
90
90
60
ENDCHAR
STARTCHAR cedilla
ENCODING 252
SWIDTH 591 0
DWIDTH 10 0
BBX 4 4 3 -4
BITMAP
40
E0
30
E0
ENDCHAR
STARTCHAR hungarumlaut
ENCODING 253
SWIDTH 591 0
DWIDTH 10 0
BBX 8 3 1 12
BITMAP
33
66
CC
ENDCHAR
STARTCHAR ogonek
ENCODING 254
SWIDTH 591 0
DWIDTH 10 0
BBX 3 4 3 -4
BITMAP
60
C0
C0
60
ENDCHAR
STARTCHAR caron
ENCODING 255
SWIDTH 591 0
DWIDTH 10 0
BBX 6 3 2 12
BITMAP
CC
78
30
ENDCHAR
ENDFONT
